<svg viewBox="0 0 640 400" data-background-color="#528265" preserveAspectRatio="xMidYMid meet" height="400" width="640" xmlns="http://www.w3.org/2000/svg" xmlns:xlink="http://www.w3.org/1999/xlink"><g id="tight-bounds" transform="matrix(1,0,0,1,196.48672091447514,60)"><svg viewBox="0 0 247.02655817104971 280" height="280" width="247.02655817104971"><g><svg viewBox="0 0 278.2696 315.41340565514673" height="280" width="247.02655817104971"><g><svg viewBox="0 0 278.2696 315.41340565514673" height="315.41340565514673" width="278.2696"><g id="textblocktransform"><svg viewBox="0 0 278.2696 315.41340565514673" height="315.41340565514673" width="278.2696" id="textblock"><g><svg viewBox="0 0 278.2696 278.2696" height="278.2696" width="278.2696"><g transform="matrix(1,0,0,1,101.6735901294083,89.94321971048298)"><svg viewBox="0 0 74.92241974118345 98.38316057903407" height="98.38316057903407" width="74.92241974118345"><g><svg xmlns="http://www.w3.org/2000/svg" xmlns:xlink="http://www.w3.org/1999/xlink" version="1.1" x="0" y="0" viewBox="18.083999633789062 8.08986759185791 63.831382751464844 83.81914520263672" enable-background="new 0 0 100 100" xml:space="preserve" height="98.38316057903407" width="74.92241974118345" class="icon-o-0" data-fill-palette-color="accent" id="o-0"><g fill="#ffffff" data-fill-palette-color="accent"><path fill="#ffffff" d="M75.831 81.262c-0.461 4.555-4.121 7.827-8.179 7.309l-34.53-4.418c-4.055-0.521-6.968-4.632-6.507-9.187l6.035-59.515c0.464-4.555 4.123-7.826 8.182-7.307l34.529 4.417c4.057 0.52 6.969 4.632 6.506 9.187L75.831 81.262z" data-fill-palette-color="accent"></path><path fill="#ffffff" d="M28.725 87.08c-4.055-0.519-6.969-4.632-6.508-9.187l6.036-59.514c0.108-1.073 0.401-2.072 0.829-2.969h-3.607c-4.083 0-7.391 3.716-7.391 8.301v59.896c0 4.586 3.308 8.302 7.391 8.302h34.754c0.866 0 1.693-0.177 2.467-0.484L28.725 87.08z" data-fill-palette-color="accent"></path></g></svg></g></svg></g><g><path d="M17.947 96.118v0l-9.654 16.387 7.95-17.503c0.48 0.38 1.049 0.751 1.704 1.116zM4.917 109.596l7.928-17.457 1.51 1.423zM12.363 113.913l7.655-16.855c0.754 0.277 1.411 0.446 1.969 0.509v0zM28.317 93.973v0l-11.579 20.651 7.949-17.503c1.269-0.502 2.479-1.551 3.63-3.148zM2.397 104.777l7.928-17.457c0.126 0.805 0.411 1.654 0.857 2.546v0zM28.724 103.323l-8.407 13.763 6.897-15.186zM32.076 106.408l-8.133 13.16 6.623-14.583zM32.419 104.902l-5.668-5.325c1.659-1.99 2.915-3.924 3.769-5.802 0.856-1.885 1.471-3.457 1.845-4.718v0l-1.884-1.252-1.848 3.22c-1.411 2.462-2.822 4.017-4.233 4.668-1.404 0.653-2.945 0.599-4.623-0.163v0c-0.73-0.331-1.504-0.782-2.323-1.353v0c-3.184-2.194-5.051-4.414-5.602-6.658-0.547-2.236-0.043-5.066 1.513-8.489 1.558-3.429 3.269-6.301 5.134-8.615v0l5.536 5.056c-1.476 2.168-2.537 3.963-3.183 5.386-0.646 1.423-1.133 2.68-1.46 3.771v0l1.84 1.231 1.521-2.598c1.552-2.625 3.099-4.288 4.642-4.988 1.546-0.706 3.17-0.673 4.872 0.1v0c1.733 0.787 3.353 1.967 4.861 3.54v0c0.766 0.832 1.366 1.618 1.801 2.358 0.431 0.731 0.714 1.545 0.849 2.442 0.132 0.889 0.183 1.671 0.155 2.348-0.026 0.67-0.187 1.477-0.484 2.421v0c-0.378 1.332-0.985 2.919-1.821 4.762v0c-1.524 3.356-3.261 6.242-5.209 8.658z" fill="#ffffff" data-fill-palette-color="primary"></path><path d="M83.871 44.345l-8.914-6.258c-0.211-0.124-0.41-0.345-0.595-0.662-0.188-0.323-0.376-0.705-0.563-1.145v0l-0.311 0.182 4.256 11.456-7.321 4.269-9.802-26.555 6.897-4.022 8.919 6.268c0.179 0.135 0.363 0.364 0.551 0.687 0.185 0.317 0.374 0.694 0.567 1.131v0l0.303-0.177-4.214-11.481 7.321-4.269 9.803 26.555zM68.495 50.829l0.712 1.916-17.352 7.788zM65.476 42.629l0.698 1.912-17.347 7.796zM63.971 38.556l0.706 1.907-17.347 7.796zM62.469 34.469l0.702 1.921-17.343 7.782zM60.929 30.415l0.74 1.887-17.346 7.796zM66.973 46.708l0.703 1.921-17.343 7.782zM59.427 26.328l0.702 1.921-17.308 7.762z" fill="#ffffff" data-fill-palette-color="primary"></path><path d="M144.244 24.835l-2.065 4.276-8.891-0.662 13.765-26.93 13.077 0.972-0.11 27.947-8.941-0.665 0.148-4.419zM147.528 17.967l3.556 0.265 0.579-7.782-0.44-0.033zM132.868 26.269l-0.995 1.894-18.085-3.313zM135.017 22.089l-0.995 1.895-18.095-3.315zM137.112 17.956l-0.955 1.898-18.085-3.314zM139.247 13.825l-0.984 1.886-18.046-3.301zM141.343 9.682l-0.944 1.899-18.046-3.311zM145.585 1.409l-0.942 1.859-18.008-3.268zM143.439 5.549l-0.941 1.849-17.999-3.258zM126.635 0l18.008 3.268 0.942-1.859z" fill="#ffffff" data-fill-palette-color="primary"></path><path d="M215.262 49.873v0l-4.287-3.493-5.152 4.486-6.571-5.352 21.412-18.515 10.376 8.452c3.92 3.193 4.395 6.612 1.426 10.257v0c-1.409 1.729-2.924 3.092-4.545 4.088-1.616 1.001-3.052 1.67-4.309 2.007-1.256 0.347-2.629 0.383-4.119 0.108-1.485-0.271-2.895-0.95-4.231-2.038zM216.456 41.634l1.523 1.24c0.782 0.637 1.444 1.034 1.987 1.192 0.543 0.158 1.127-0.03 1.751-0.563v0c1.688-1.459 2.597-2.269 2.728-2.429v0c0.358-0.44 0.421-0.871 0.188-1.294-0.237-0.417-0.7-0.906-1.389-1.467v0l-1.522-1.24zM199.845 43.232l-1.544 1.339-13.391-13.505zM206.46 37.522l-1.545 1.325-13.398-13.497zM213.01 31.811l-1.551 1.334-13.353-13.474zM216.294 28.969l-1.537 1.332-13.367-13.472zM203.168 40.357l-1.551 1.334-13.384-13.499zM219.592 26.126l-1.551 1.333-13.353-13.473zM209.712 34.654l-1.544 1.326-13.36-13.466z" fill="#ffffff" data-fill-palette-color="primary"></path><path d="M244.42 94.987l-2.026 0.282-3.944-18.554zM248.754 94.319l-2.01 0.33-3.945-18.555zM252.695 92.609l-1.779 1.004-3.97-18.6zM256.5 90.481l-1.78 1.003-3.97-18.599zM258.378 68.654l5.734 17.548-1.78 1.004zM254.577 70.792l5.734 17.548-1.79 1.006zM267.938 84.109l-1.789 1.006-3.944-18.554zM268.355 85.385l2.909 8.903-9.151 3.601 0.097 0.295 10.604 0.846 2.909 8.903-22.782-4.381-7.61 1.127-2.632-8.055 7.613-1.118z" fill="#ffffff" data-fill-palette-color="primary"></path><path d="M28.241 182.458v0l-6.212-18.453 8.212 17.888c-0.616 0.114-1.283 0.302-2 0.566zM26.542 163.343l8.192 17.843-2.105 0.217zM18.213 166.208l7.907 17.224c-0.721 0.397-1.292 0.795-1.711 1.194v0zM22.933 191.928v0l-8.201-22.81 8.213 17.889c-0.468 1.317-0.472 2.958-0.012 4.921zM31.959 164.626l8.191 17.843c-0.705-0.448-1.553-0.797-2.542-1.048v0zM15.43 185.981l-5.011-15.742 7.126 15.521zM10.797 186.499l-4.724-15.114 6.838 14.893zM11.736 187.777l7.911-0.822c0.43 2.617 1.086 4.887 1.97 6.812 0.883 1.924 1.688 3.454 2.416 4.589v0l2.23-0.616-1.256-3.601c-0.958-2.742-1.217-4.875-0.778-6.399 0.439-1.524 1.518-2.681 3.235-3.47v0c0.747-0.343 1.614-0.638 2.602-0.886v0c3.834-0.996 6.804-0.953 8.911 0.131 2.098 1.08 3.949 3.368 5.554 6.863 1.608 3.502 2.681 6.753 3.221 9.753v0l-7.627 0.889c-0.693-2.599-1.373-4.624-2.039-6.074-0.666-1.45-1.307-2.67-1.922-3.658v0l-2.194 0.599 0.983 2.91c0.992 2.961 1.242 5.275 0.751 6.941-0.492 1.666-1.608 2.899-3.35 3.699v0c-1.772 0.814-3.77 1.279-5.995 1.396v0c-1.154 0.03-2.161-0.033-3.019-0.19-0.858-0.157-1.681-0.485-2.468-0.983-0.778-0.495-1.417-0.981-1.915-1.458-0.501-0.468-1.017-1.135-1.547-2.001v0c-0.777-1.179-1.597-2.71-2.46-4.591v0c-1.577-3.435-2.648-6.713-3.214-9.833z" fill="#ffffff" data-fill-palette-color="primary"></path><path d="M72.281 259.379l1.048-11.107c0.003-0.245 0.1-0.532 0.291-0.861 0.191-0.329 0.434-0.69 0.73-1.082v0l-0.32-0.186-8.034 9.597-7.508-4.346 18.643-22.183 7.074 4.095-1.048 11.107c-0.026 0.232-0.135 0.512-0.326 0.842-0.191 0.329-0.434 0.69-0.73 1.082v0l0.312 0.181 8.077-9.573 7.507 4.347-18.643 22.183zM58.721 248.993l-1.35 1.592-15.728-11.48zM64.481 242.143l-1.354 1.6-15.723-11.488zM67.342 238.741l-1.341 1.596-15.728-11.479zM70.217 235.335l-1.35 1.592-15.728-11.48zM73.043 231.913l-1.306 1.617-15.728-11.479zM61.607 245.548l-1.341 1.597-15.728-11.48zM75.909 228.503l-1.341 1.596-15.693-11.459z" fill="#ffffff" data-fill-palette-color="primary"></path><path d="M145.493 272.936l-1.435 4.64-9.109 0.694 9.808-29.369 13.384-1.019 4.175 28.303-9.149 0.697-0.533-4.49zM147.758 265.48l3.646-0.278-0.608-7.971-0.459 0.035zM134.193 276.127l-0.716 2.074-18.821-0.586zM135.724 271.57l-0.716 2.074-18.821-0.586zM137.209 267.057l-0.666 2.07-18.821-0.586zM138.744 262.55l-0.717 2.063-18.77-0.579zM140.229 258.036l-0.666 2.07-18.771-0.589zM143.259 249.015l-0.67 2.02-18.727-0.542zM141.724 253.532l-0.67 2.02-18.727-0.542zM123.862 250.493l18.727 0.542 0.67-2.02z" fill="#ffffff" data-fill-palette-color="primary"></path><path d="M221.766 240.898v0l-4.386 3.578 3.432 6.094-6.722 5.483-14.149-25.288 10.619-8.661c4.011-3.271 7.535-3.044 10.575 0.682v0c1.444 1.77 2.499 3.572 3.167 5.405 0.668 1.834 1.042 3.412 1.122 4.735 0.083 1.328-0.164 2.71-0.742 4.146-0.578 1.436-1.55 2.712-2.916 3.826zM213.744 238.005l1.56-1.273c0.802-0.654 1.336-1.236 1.602-1.745 0.27-0.514 0.206-1.137-0.195-1.871v0c-1.117-1.993-1.743-3.072-1.878-3.238v0c-0.367-0.45-0.784-0.602-1.25-0.454-0.47 0.142-1.06 0.502-1.768 1.08v0l-1.561 1.273zM211.927 254.986l1.011 1.825-16.303 10.647zM207.559 247.173l1.017 1.834-16.309 10.639zM203.183 239.431l1.019 1.82-16.272 10.621zM201.022 235.545l1.011 1.826-16.264 10.615zM209.727 251.067l1.018 1.819-16.303 10.648zM198.847 231.658l1.018 1.819-16.272 10.622zM205.359 243.319l1.01 1.825-16.264 10.616z" fill="#ffffff" data-fill-palette-color="primary"></path><path d="M262.753 194.444l1.836 0.992-7.975 17.71zM258.775 192.368l1.851 0.945-7.978 17.719zM254.475 191.399l2.092 0.244-8 17.754zM250.047 190.852l2.079 0.251-7.99 17.756zM235.28 207.734l5.899-17.969 2.079 0.25zM239.711 208.271l5.895-17.959 2.08 0.25zM236.754 189.177l2.079 0.25-7.978 17.719zM237.179 187.883l2.993-9.118 9.73 2.572 0.1-0.304-8.237-7.122 2.99-9.108 16.153 17.406 6.963 3.678-2.709 8.251-6.96-3.687z" fill="#ffffff" data-fill-palette-color="primary"></path><path d="M3.193 141.49c0-6.021 4.881-10.902 10.902-10.902 6.021 0 10.902 4.881 10.902 10.902 0 6.021-4.881 10.902-10.902 10.902-6.021 0-10.902-4.881-10.902-10.902z" fill="#ffffff" data-fill-palette-color="primary"></path><path d="M254.069 141.49c0-6.021 4.881-10.902 10.902-10.902 6.021 0 10.902 4.881 10.902 10.902 0 6.021-4.881 10.902-10.902 10.902-6.021 0-10.902-4.881-10.902-10.902z" fill="#ffffff" data-fill-palette-color="primary"></path></g></svg></g><g transform="matrix(1,0,0,1,53.1494936,296.29666000000003)"><svg viewBox="0 0 171.97061280000003 19.11674565514672" height="19.11674565514672" width="171.97061280000003"><g transform="matrix(1,0,0,1,0,0)"><svg width="171.97061280000003" viewBox="0 -35.79999923706055 322.0299987792969 35.79999923706055" height="19.11674565514672" data-palette-color="#ffffff"><path d="M30.25-2.15L36.8-2.15 36.8 0 0 0 0-2.15 11.1-2.15Q7.15-4.5 4.88-8.55 2.6-12.6 2.6-17.7L2.6-17.7Q2.6-25.4 7.93-30.6 13.25-35.8 21.38-35.8 29.5-35.8 34.95-29.8L34.95-29.8 31.2-25.7Q28.7-28.1 26.48-29.05 24.25-30 21.25-30L21.25-30Q15.95-30 12.35-26.58 8.75-23.15 8.75-17.82 8.75-12.5 12.33-8.93 15.9-5.35 20.8-5.35L20.8-5.35Q23.85-5.35 26.05-6.38 28.25-7.4 30.65-9.65L30.65-9.65 34.45-5.75Q32.25-3.35 30.25-2.15L30.25-2.15ZM72.95-2.15L78.75-2.15 78.75 0 67.6 0 64.1-7.95 46.6-7.95 43.1 0 31.95 0 31.95-2.15 37.75-2.15 52.2-34.95 58.5-34.95 72.95-2.15ZM49-13.4L61.7-13.4 55.35-27.8 49-13.4ZM106.7-2.15L111.55-2.15 111.55 0 100.75 0 92.4-11.75 84.65-11.75 84.65 0 73.9 0 73.9-2.15 78.75-2.15 78.75-34.95 91.75-34.95Q99.75-34.95 103.2-32.25 106.65-29.55 106.65-23.6L106.65-23.6Q106.65-14.95 99.1-12.7L99.1-12.7 106.7-2.15ZM92-17.1Q97-17.1 98.8-18.65 100.6-20.2 100.6-23.63 100.6-27.05 98.75-28.33 96.9-29.6 92.15-29.6L92.15-29.6 84.65-29.6 84.65-17.1 92-17.1ZM137.84-2.15L149.39-2.15 149.39 0 110.29 0 110.29-2.15 115.14-2.15 115.14-34.95 127.14-34.95Q136.54-34.95 141.59-30.38 146.64-25.8 146.64-17.5L146.64-17.5Q146.64-6.35 137.84-2.15L137.84-2.15ZM140.69-17.5L140.69-17.5Q140.69-29.5 126.94-29.5L126.94-29.5 121.04-29.5 121.04-5.55 127.59-5.55Q133.94-5.55 137.32-8.58 140.69-11.6 140.69-17.5ZM149.39-2.15L163.09-2.15 163.09 0 149.39 0 149.39-2.15ZM193.54-2.15L200.94-2.15 200.94 0 163.09 0 163.09-2.15 175.19-2.15Q170.84-4.35 168.26-8.6 165.69-12.85 165.69-18.2L165.69-18.2Q165.69-25.85 170.99-30.83 176.29-35.8 183.86-35.8 191.44-35.8 196.44-31.4L196.44-31.4 193.29-26.9Q191.24-28.65 189.16-29.33 187.09-30 184.34-30L184.34-30Q178.99-30 175.41-26.8 171.84-23.6 171.84-18.05 171.84-12.5 175.34-9.13 178.84-5.75 183.81-5.75 188.79-5.75 192.14-7.9L192.14-7.9 192.14-17.5 198.04-17.5 198.04-5.55Q196.19-3.5 193.54-2.15L193.54-2.15ZM237.09-2.15L242.88-2.15 242.88 0 231.74 0 228.24-7.95 210.74-7.95 207.24 0 196.09 0 196.09-2.15 201.88-2.15 216.34-34.95 222.63-34.95 237.09-2.15ZM213.13-13.4L225.84-13.4 219.49-27.8 213.13-13.4ZM282.33-2.15L287.18-2.15 287.18 0 276.43 0 276.43-27.3 264.23-3.05 260.93-3.05 248.78-27.3 248.78 0 238.03 0 238.03-2.15 242.88-2.15 242.88-34.95 252.08-34.95 262.63-13 273.18-34.95 282.33-34.95 282.33-2.15ZM287.18-2.15L292.03-2.15 292.03-34.95 316.58-34.95 316.58-29.4 297.93-29.4 297.93-20.15 314.68-20.15 314.68-14.9 297.93-14.9 297.93-5.55 317.18-5.55 317.18-2.15 322.03-2.15 322.03 0 287.18 0 287.18-2.15Z" opacity="1" transform="matrix(1,0,0,1,0,0)" fill="#ffffff" class="slogan-text-1" data-fill-palette-color="secondary" id="text-1"></path></svg></g></svg></g></svg></g></svg></g></svg></g><defs></defs></svg><rect width="247.02655817104971" height="280" fill="none" stroke="none" visibility="hidden"></rect></g></svg>